<svg width="361" height="71" viewBox="0 0 361 71" fill="none" xmlns="http://www.w3.org/2000/svg">
<path d="M91.0237 24C90.8493 24 90.6923 23.939 90.5528 23.8169C90.4307 23.6774 90.3697 23.5204 90.3697 23.3461V6.34342C90.3697 6.1516 90.4307 5.99465 90.5528 5.87258C90.6923 5.75051 90.8493 5.68947 91.0237 5.68947H98.3479C100.58 5.68947 102.333 6.20391 103.606 7.23279C104.896 8.26167 105.541 9.76139 105.541 11.7319C105.541 13.6851 104.905 15.1586 103.632 16.1526C102.359 17.1292 100.597 17.6175 98.3479 17.6175H95.2351V23.3461C95.2351 23.5379 95.1653 23.6948 95.0258 23.8169C94.9037 23.939 94.7468 24 94.555 24H91.0237ZM98.2171 14.0077C98.9844 14.0077 99.586 13.8159 100.022 13.4322C100.458 13.0311 100.676 12.4469 100.676 11.6796C100.676 10.9646 100.467 10.3979 100.048 9.97937C99.647 9.5434 99.0367 9.32542 98.2171 9.32542H95.1566V14.0077H98.2171ZM111.533 24.2616C110.609 24.2616 109.763 24.0872 108.996 23.7384C108.246 23.3722 107.653 22.8839 107.217 22.2736C106.798 21.6458 106.589 20.957 106.589 20.2071C106.589 19.0038 107.078 18.036 108.054 17.3036C109.048 16.5712 110.408 16.0654 112.135 15.7864L115.404 15.2894V14.9232C115.404 14.2605 115.265 13.7723 114.986 13.4584C114.707 13.1445 114.236 12.9875 113.573 12.9875C113.172 12.9875 112.841 13.0573 112.579 13.1968C112.318 13.3363 112.048 13.5281 111.768 13.7723C111.524 13.9815 111.341 14.121 111.219 14.1908C111.167 14.3303 111.071 14.4001 110.931 14.4001H108.08C107.906 14.4001 107.758 14.3477 107.636 14.2431C107.531 14.121 107.487 13.9815 107.505 13.8246C107.522 13.3537 107.749 12.8306 108.185 12.2551C108.638 11.6796 109.318 11.1826 110.225 10.7641C111.149 10.3456 112.283 10.1363 113.626 10.1363C115.771 10.1363 117.358 10.6159 118.386 11.575C119.415 12.5167 119.93 13.7897 119.93 15.3941V23.3461C119.93 23.5204 119.869 23.6774 119.747 23.8169C119.625 23.939 119.468 24 119.276 24H116.241C116.067 24 115.91 23.939 115.771 23.8169C115.649 23.6774 115.588 23.5204 115.588 23.3461V22.4305C115.204 22.9711 114.663 23.4158 113.966 23.7646C113.286 24.0959 112.475 24.2616 111.533 24.2616ZM112.762 21.2796C113.565 21.2796 114.21 21.018 114.698 20.4948C115.204 19.9717 115.457 19.2044 115.457 18.1929V17.8267L113.233 18.2191C111.664 18.4981 110.879 19.0474 110.879 19.8671C110.879 20.303 111.062 20.6518 111.428 20.9134C111.795 21.1575 112.239 21.2796 112.762 21.2796ZM131.2 24.2616C129.456 24.2616 128.104 23.6774 127.145 22.509V23.3461C127.145 23.5204 127.084 23.6774 126.962 23.8169C126.84 23.939 126.683 24 126.491 24H123.535C123.361 24 123.204 23.939 123.065 23.8169C122.943 23.6774 122.882 23.5204 122.882 23.3461V6.08184C122.882 5.89002 122.943 5.73307 123.065 5.611C123.204 5.48893 123.361 5.42789 123.535 5.42789H126.727C126.919 5.42789 127.075 5.48893 127.198 5.611C127.32 5.73307 127.381 5.89002 127.381 6.08184V11.6796C128.357 10.6508 129.63 10.1363 131.2 10.1363C132.891 10.1363 134.225 10.6856 135.202 11.7843C136.178 12.8829 136.702 14.3739 136.771 16.2573C136.789 16.484 136.798 16.7979 136.798 17.1989C136.798 17.5826 136.789 17.8878 136.771 18.1145C136.684 20.0676 136.161 21.5848 135.202 22.6659C134.243 23.7297 132.909 24.2616 131.2 24.2616ZM129.787 20.7564C130.607 20.7564 131.191 20.5123 131.54 20.024C131.906 19.5357 132.115 18.8643 132.168 18.0098C132.202 17.6611 132.22 17.3908 132.22 17.1989C132.22 17.0071 132.202 16.7368 132.168 16.3881C132.115 15.5336 131.906 14.8622 131.54 14.3739C131.191 13.8856 130.607 13.6415 129.787 13.6415C129.02 13.6415 128.436 13.8769 128.035 14.3477C127.634 14.8186 127.416 15.4115 127.381 16.1265L127.355 17.0943L127.381 18.0883C127.433 18.8731 127.642 19.5183 128.008 20.024C128.392 20.5123 128.985 20.7564 129.787 20.7564ZM140.037 24C139.863 24 139.706 23.939 139.567 23.8169C139.444 23.6774 139.383 23.5204 139.383 23.3461V6.08184C139.383 5.89002 139.444 5.73307 139.567 5.611C139.706 5.48893 139.863 5.42789 140.037 5.42789H143.124C143.316 5.42789 143.473 5.48893 143.595 5.611C143.717 5.73307 143.778 5.89002 143.778 6.08184V23.3461C143.778 23.5379 143.717 23.6948 143.595 23.8169C143.473 23.939 143.316 24 143.124 24H140.037ZM153.303 24.2616C151.141 24.2616 149.475 23.7471 148.307 22.7183C147.138 21.6894 146.502 20.242 146.397 18.3761C146.38 18.1494 146.371 17.757 146.371 17.1989C146.371 16.6409 146.38 16.2485 146.397 16.0218C146.502 14.1734 147.156 12.7347 148.359 11.7058C149.562 10.6595 151.21 10.1363 153.303 10.1363C155.413 10.1363 157.07 10.6595 158.273 11.7058C159.476 12.7347 160.13 14.1734 160.235 16.0218C160.252 16.2485 160.261 16.6409 160.261 17.1989C160.261 17.757 160.252 18.1494 160.235 18.3761C160.13 20.242 159.494 21.6894 158.325 22.7183C157.157 23.7471 155.483 24.2616 153.303 24.2616ZM153.303 21.0703C154.07 21.0703 154.637 20.8436 155.003 20.3902C155.369 19.9194 155.579 19.2044 155.631 18.2453C155.648 18.0709 155.657 17.7221 155.657 17.1989C155.657 16.6758 155.648 16.327 155.631 16.1526C155.579 15.2109 155.361 14.5047 154.977 14.0338C154.611 13.563 154.053 13.3276 153.303 13.3276C151.856 13.3276 151.088 14.2693 151.001 16.1526L150.975 17.1989L151.001 18.2453C151.036 19.2044 151.236 19.9194 151.603 20.3902C151.986 20.8436 152.553 21.0703 153.303 21.0703Z" fill="white"/>
<path d="M169.37 24C169.195 24 169.038 23.939 168.899 23.8169C168.777 23.6774 168.716 23.5204 168.716 23.3461V6.34342C168.716 6.1516 168.777 5.99465 168.899 5.87258C169.038 5.75051 169.195 5.68947 169.37 5.68947H172.666C172.857 5.68947 173.014 5.75051 173.136 5.87258C173.258 5.99465 173.319 6.1516 173.319 6.34342V12.1505L178.159 6.18647C178.368 5.85514 178.708 5.68947 179.179 5.68947H182.946C183.103 5.68947 183.233 5.75051 183.338 5.87258C183.443 5.97721 183.495 6.09928 183.495 6.23879C183.495 6.36086 183.469 6.46549 183.416 6.55268L177.139 14.4524L183.887 23.1368C183.957 23.2065 183.992 23.3112 183.992 23.4507C183.992 23.5902 183.94 23.721 183.835 23.8431C183.73 23.9477 183.6 24 183.443 24H179.545C179.127 24 178.778 23.8256 178.499 23.4768L173.319 17.0158V23.3461C173.319 23.5379 173.258 23.6948 173.136 23.8169C173.014 23.939 172.857 24 172.666 24H169.37ZM191.441 24.2616C189.279 24.2616 187.614 23.7471 186.445 22.7183C185.277 21.6894 184.64 20.242 184.536 18.3761C184.518 18.1494 184.51 17.757 184.51 17.1989C184.51 16.6409 184.518 16.2485 184.536 16.0218C184.64 14.1734 185.294 12.7347 186.498 11.7058C187.701 10.6595 189.349 10.1363 191.441 10.1363C193.551 10.1363 195.208 10.6595 196.411 11.7058C197.615 12.7347 198.269 14.1734 198.373 16.0218C198.391 16.2485 198.399 16.6409 198.399 17.1989C198.399 17.757 198.391 18.1494 198.373 18.3761C198.269 20.242 197.632 21.6894 196.464 22.7183C195.295 23.7471 193.621 24.2616 191.441 24.2616ZM191.441 21.0703C192.209 21.0703 192.775 20.8436 193.142 20.3902C193.508 19.9194 193.717 19.2044 193.769 18.2453C193.787 18.0709 193.796 17.7221 193.796 17.1989C193.796 16.6758 193.787 16.327 193.769 16.1526C193.717 15.2109 193.499 14.5047 193.115 14.0338C192.749 13.563 192.191 13.3276 191.441 13.3276C189.994 13.3276 189.227 14.2693 189.139 16.1526L189.113 17.1989L189.139 18.2453C189.174 19.2044 189.375 19.9194 189.741 20.3902C190.125 20.8436 190.691 21.0703 191.441 21.0703ZM201.652 24C201.46 24 201.303 23.939 201.181 23.8169C201.059 23.6948 200.998 23.5379 200.998 23.3461V11.0518C200.998 10.86 201.059 10.7031 201.181 10.581C201.303 10.4589 201.46 10.3979 201.652 10.3979H204.66C204.851 10.3979 205.008 10.4589 205.131 10.581C205.27 10.7031 205.34 10.86 205.34 11.0518V12.0458C205.811 11.4704 206.412 11.0082 207.145 10.6595C207.895 10.3107 208.74 10.1363 209.682 10.1363C211.217 10.1363 212.463 10.6595 213.423 11.7058C214.382 12.7347 214.861 14.1821 214.861 16.048V23.3461C214.861 23.5204 214.8 23.6774 214.678 23.8169C214.556 23.939 214.399 24 214.207 24H210.911C210.737 24 210.58 23.939 210.441 23.8169C210.318 23.6774 210.257 23.5204 210.257 23.3461V16.2049C210.257 15.3853 210.057 14.7575 209.656 14.3216C209.255 13.8682 208.679 13.6415 207.929 13.6415C207.197 13.6415 206.622 13.8682 206.203 14.3216C205.784 14.7575 205.575 15.3853 205.575 16.2049V23.3461C205.575 23.5204 205.514 23.6774 205.392 23.8169C205.27 23.939 205.113 24 204.921 24H201.652ZM218.46 24C218.268 24 218.111 23.939 217.989 23.8169C217.867 23.6948 217.806 23.5379 217.806 23.3461V11.0518C217.806 10.86 217.867 10.7031 217.989 10.581C218.111 10.4589 218.268 10.3979 218.46 10.3979H221.468C221.66 10.3979 221.817 10.4676 221.939 10.6072C222.079 10.7292 222.148 10.8775 222.148 11.0518V12.0982C223.107 10.9646 224.398 10.3979 226.02 10.3979H227.171C227.362 10.3979 227.519 10.4589 227.641 10.581C227.763 10.7031 227.825 10.86 227.825 11.0518V13.7461C227.825 13.9205 227.763 14.0774 227.641 14.2169C227.519 14.339 227.362 14.4001 227.171 14.4001H224.633C223.918 14.4001 223.36 14.6006 222.959 15.0017C222.576 15.3853 222.384 15.9346 222.384 16.6496V23.3461C222.384 23.5379 222.314 23.6948 222.174 23.8169C222.052 23.939 221.895 24 221.704 24H218.46ZM233.535 24.2616C232.611 24.2616 231.765 24.0872 230.998 23.7384C230.248 23.3722 229.655 22.8839 229.219 22.2736C228.801 21.6458 228.591 20.957 228.591 20.2071C228.591 19.0038 229.08 18.036 230.056 17.3036C231.05 16.5712 232.41 16.0654 234.137 15.7864L237.406 15.2894V14.9232C237.406 14.2605 237.267 13.7723 236.988 13.4584C236.709 13.1445 236.238 12.9875 235.575 12.9875C235.174 12.9875 234.843 13.0573 234.581 13.1968C234.32 13.3363 234.05 13.5281 233.771 13.7723C233.526 13.9815 233.343 14.121 233.221 14.1908C233.169 14.3303 233.073 14.4001 232.933 14.4001H230.082C229.908 14.4001 229.76 14.3477 229.638 14.2431C229.533 14.121 229.489 13.9815 229.507 13.8246C229.524 13.3537 229.751 12.8306 230.187 12.2551C230.64 11.6796 231.32 11.1826 232.227 10.7641C233.151 10.3456 234.285 10.1363 235.628 10.1363C237.773 10.1363 239.36 10.6159 240.388 11.575C241.417 12.5167 241.932 13.7897 241.932 15.3941V23.3461C241.932 23.5204 241.871 23.6774 241.749 23.8169C241.627 23.939 241.47 24 241.278 24H238.244C238.069 24 237.912 23.939 237.773 23.8169C237.651 23.6774 237.59 23.5204 237.59 23.3461V22.4305C237.206 22.9711 236.665 23.4158 235.968 23.7646C235.288 24.0959 234.477 24.2616 233.535 24.2616ZM234.765 21.2796C235.567 21.2796 236.212 21.018 236.7 20.4948C237.206 19.9717 237.459 19.2044 237.459 18.1929V17.8267L235.235 18.2191C233.666 18.4981 232.881 19.0474 232.881 19.8671C232.881 20.303 233.064 20.6518 233.43 20.9134C233.797 21.1575 234.241 21.2796 234.765 21.2796ZM251.739 24C248.13 24 246.325 22.2823 246.325 18.8469V13.8246H244.284C244.093 13.8246 243.927 13.7635 243.787 13.6415C243.665 13.5194 243.604 13.3625 243.604 13.1706V11.0518C243.604 10.86 243.665 10.7031 243.787 10.581C243.927 10.4589 244.093 10.3979 244.284 10.3979H246.325V6.08184C246.325 5.89002 246.386 5.73307 246.508 5.611C246.647 5.48893 246.804 5.42789 246.979 5.42789H250.013C250.205 5.42789 250.362 5.48893 250.484 5.611C250.606 5.73307 250.667 5.89002 250.667 6.08184V10.3979H253.937C254.128 10.3979 254.285 10.4589 254.407 10.581C254.547 10.7031 254.617 10.86 254.617 11.0518V13.1706C254.617 13.3625 254.547 13.5194 254.407 13.6415C254.285 13.7635 254.128 13.8246 253.937 13.8246H250.667V18.4807C250.667 19.7711 251.164 20.4164 252.158 20.4164H254.172C254.364 20.4164 254.521 20.4774 254.643 20.5995C254.765 20.7215 254.826 20.8785 254.826 21.0703V23.3461C254.826 23.5204 254.765 23.6774 254.643 23.8169C254.521 23.939 254.364 24 254.172 24H251.739ZM257.646 24C257.471 24 257.314 23.939 257.175 23.8169C257.053 23.6774 256.992 23.5204 256.992 23.3461V6.08184C256.992 5.89002 257.053 5.73307 257.175 5.611C257.314 5.48893 257.471 5.42789 257.646 5.42789H260.994C261.186 5.42789 261.343 5.48893 261.465 5.611C261.587 5.73307 261.648 5.89002 261.648 6.08184V11.9151C262.694 10.7292 264.072 10.1363 265.781 10.1363C266.792 10.1363 267.69 10.363 268.475 10.8164C269.277 11.2698 269.905 11.9412 270.359 12.8306C270.812 13.7199 271.039 14.7924 271.039 16.048V23.3461C271.039 23.5204 270.978 23.6774 270.856 23.8169C270.733 23.939 270.576 24 270.385 24H267.01C266.836 24 266.679 23.939 266.539 23.8169C266.417 23.6774 266.356 23.5204 266.356 23.3461V16.2049C266.356 15.3853 266.156 14.7575 265.755 14.3216C265.371 13.8682 264.804 13.6415 264.054 13.6415C263.305 13.6415 262.712 13.8682 262.276 14.3216C261.857 14.7575 261.648 15.3853 261.648 16.2049V23.3461C261.648 23.5379 261.587 23.6948 261.465 23.8169C261.343 23.939 261.186 24 260.994 24H257.646Z" fill="#17CFAB"/>
<path d="M129.746 51C129.601 51 129.477 50.9491 129.375 50.8474C129.273 50.7456 129.223 50.6221 129.223 50.4767V36.2819C129.223 36.122 129.266 35.9912 129.353 35.8895C129.455 35.7877 129.586 35.7368 129.746 35.7368H135.066C139.34 35.7368 141.52 37.7138 141.608 41.6677C141.637 42.5108 141.651 43.0777 141.651 43.3684C141.651 43.6446 141.637 44.2043 141.608 45.0474C141.549 47.0825 141.004 48.587 139.972 49.5609C138.94 50.5203 137.341 51 135.175 51H129.746ZM135.066 48.4925C136.287 48.4925 137.167 48.2236 137.705 47.6857C138.242 47.1333 138.526 46.2321 138.555 44.982C138.584 44.1098 138.599 43.5647 138.599 43.3466C138.599 43.114 138.584 42.5762 138.555 41.7331C138.526 40.5411 138.221 39.6616 137.639 39.0947C137.072 38.5278 136.178 38.2444 134.957 38.2444H132.253V48.4925H135.066ZM149.176 51.218C147.563 51.218 146.276 50.7529 145.317 49.8226C144.372 48.8777 143.871 47.5549 143.813 45.8541L143.791 45.309L143.813 44.7639C143.885 43.1068 144.394 41.8058 145.339 40.8609C146.298 39.916 147.577 39.4436 149.176 39.4436C150.892 39.4436 152.215 39.9669 153.145 41.0135C154.09 42.0601 154.562 43.4556 154.562 45.2V45.6579C154.562 45.8033 154.511 45.9268 154.41 46.0286C154.308 46.1303 154.177 46.1812 154.017 46.1812H146.778V46.3556C146.807 47.1551 147.025 47.8311 147.432 48.3835C147.854 48.9213 148.428 49.1902 149.155 49.1902C150.012 49.1902 150.703 48.8559 151.226 48.1872C151.357 48.0273 151.459 47.9256 151.531 47.882C151.619 47.8383 151.742 47.8165 151.902 47.8165H153.777C153.908 47.8165 154.017 47.8601 154.104 47.9474C154.206 48.02 154.257 48.1145 154.257 48.2308C154.257 48.5797 154.046 48.994 153.625 49.4737C153.218 49.9388 152.629 50.3459 151.858 50.6947C151.088 51.0436 150.194 51.218 149.176 51.218ZM151.597 44.3496V44.2842C151.597 43.4266 151.379 42.7361 150.943 42.2128C150.521 41.6895 149.932 41.4278 149.176 41.4278C148.421 41.4278 147.832 41.6895 147.41 42.2128C146.989 42.7361 146.778 43.4266 146.778 44.2842V44.3496H151.597ZM160.484 51C160.266 51 160.099 50.9564 159.983 50.8692C159.866 50.7674 159.772 50.6293 159.699 50.4549L155.622 40.3376L155.578 40.1413C155.578 40.0105 155.622 39.9015 155.709 39.8143C155.811 39.7125 155.927 39.6616 156.058 39.6616H157.824C158.1 39.6616 158.289 39.7997 158.391 40.0759L161.291 47.7293L164.191 40.0759C164.235 39.9742 164.3 39.8797 164.387 39.7925C164.489 39.7053 164.612 39.6616 164.758 39.6616H166.546C166.662 39.6616 166.764 39.7125 166.851 39.8143C166.953 39.9015 167.004 40.0105 167.004 40.1413C167.004 40.2286 166.996 40.294 166.982 40.3376L162.883 50.4549C162.81 50.6293 162.715 50.7674 162.599 50.8692C162.483 50.9564 162.316 51 162.098 51H160.484ZM173.472 51.218C171.859 51.218 170.572 50.7529 169.613 49.8226C168.668 48.8777 168.167 47.5549 168.108 45.8541L168.087 45.309L168.108 44.7639C168.181 43.1068 168.69 41.8058 169.635 40.8609C170.594 39.916 171.873 39.4436 173.472 39.4436C175.188 39.4436 176.51 39.9669 177.441 41.0135C178.386 42.0601 178.858 43.4556 178.858 45.2V45.6579C178.858 45.8033 178.807 45.9268 178.705 46.0286C178.604 46.1303 178.473 46.1812 178.313 46.1812H171.074V46.3556C171.103 47.1551 171.321 47.8311 171.728 48.3835C172.149 48.9213 172.724 49.1902 173.45 49.1902C174.308 49.1902 174.999 48.8559 175.522 48.1872C175.653 48.0273 175.755 47.9256 175.827 47.882C175.914 47.8383 176.038 47.8165 176.198 47.8165H178.073C178.204 47.8165 178.313 47.8601 178.4 47.9474C178.502 48.02 178.553 48.1145 178.553 48.2308C178.553 48.5797 178.342 48.994 177.92 49.4737C177.513 49.9388 176.925 50.3459 176.154 50.6947C175.384 51.0436 174.49 51.218 173.472 51.218ZM175.893 44.3496V44.2842C175.893 43.4266 175.675 42.7361 175.238 42.2128C174.817 41.6895 174.228 41.4278 173.472 41.4278C172.716 41.4278 172.128 41.6895 171.706 42.2128C171.285 42.7361 171.074 43.4266 171.074 44.2842V44.3496H175.893ZM181.718 51C181.572 51 181.449 50.9491 181.347 50.8474C181.245 50.7456 181.194 50.6221 181.194 50.4767V36.0421C181.194 35.8822 181.245 35.7586 181.347 35.6714C181.449 35.5697 181.572 35.5188 181.718 35.5188H183.527C183.687 35.5188 183.811 35.5697 183.898 35.6714C184 35.7586 184.051 35.8822 184.051 36.0421V50.4767C184.051 50.6221 184 50.7456 183.898 50.8474C183.811 50.9491 183.687 51 183.527 51H181.718ZM191.958 51.218C190.257 51.218 188.942 50.782 188.011 49.9098C187.081 49.0231 186.58 47.8165 186.507 46.2902L186.485 45.3308L186.507 44.3714C186.58 42.8596 187.088 41.6604 188.033 40.7737C188.978 39.887 190.286 39.4436 191.958 39.4436C193.63 39.4436 194.938 39.887 195.883 40.7737C196.828 41.6604 197.337 42.8596 197.409 44.3714C197.424 44.5459 197.431 44.8657 197.431 45.3308C197.431 45.796 197.424 46.1158 197.409 46.2902C197.337 47.8165 196.835 49.0231 195.905 49.9098C194.974 50.782 193.659 51.218 191.958 51.218ZM191.958 49.0594C192.729 49.0594 193.325 48.8195 193.746 48.3398C194.168 47.8456 194.4 47.1261 194.444 46.1812C194.458 46.0358 194.466 45.7524 194.466 45.3308C194.466 44.9093 194.458 44.6258 194.444 44.4804C194.4 43.5356 194.168 42.8233 193.746 42.3436C193.325 41.8494 192.729 41.6023 191.958 41.6023C191.188 41.6023 190.592 41.8494 190.17 42.3436C189.749 42.8233 189.516 43.5356 189.472 44.4804L189.451 45.3308L189.472 46.1812C189.516 47.1261 189.749 47.8456 190.17 48.3398C190.592 48.8195 191.188 49.0594 191.958 49.0594ZM200.392 55.1429C200.247 55.1429 200.123 55.092 200.021 54.9902C199.92 54.903 199.869 54.7795 199.869 54.6196V40.185C199.869 40.0251 199.92 39.9015 200.021 39.8143C200.123 39.7125 200.247 39.6616 200.392 39.6616H202.115C202.274 39.6616 202.398 39.7125 202.485 39.8143C202.587 39.9015 202.638 40.0251 202.638 40.185V41.0571C203.452 39.9814 204.615 39.4436 206.127 39.4436C207.595 39.4436 208.721 39.9088 209.506 40.8391C210.291 41.7549 210.713 42.9977 210.771 44.5677C210.786 44.7421 210.793 44.9965 210.793 45.3308C210.793 45.6797 210.786 45.9414 210.771 46.1158C210.713 47.6421 210.291 48.8777 209.506 49.8226C208.721 50.7529 207.595 51.218 206.127 51.218C204.658 51.218 203.539 50.702 202.769 49.6699V54.6196C202.769 54.7795 202.718 54.903 202.616 54.9902C202.529 55.092 202.405 55.1429 202.245 55.1429H200.392ZM205.32 48.885C206.89 48.885 207.726 47.9183 207.827 45.985C207.842 45.8396 207.849 45.6216 207.849 45.3308C207.849 45.0401 207.842 44.8221 207.827 44.6767C207.726 42.7434 206.89 41.7767 205.32 41.7767C204.477 41.7767 203.852 42.0456 203.445 42.5835C203.038 43.1213 202.812 43.7827 202.769 44.5677L202.747 45.3962L202.769 46.2466C202.798 46.9734 203.023 47.5985 203.445 48.1218C203.881 48.6306 204.506 48.885 205.32 48.885ZM218.125 51.218C216.511 51.218 215.225 50.7529 214.265 49.8226C213.32 48.8777 212.819 47.5549 212.761 45.8541L212.739 45.309L212.761 44.7639C212.834 43.1068 213.342 41.8058 214.287 40.8609C215.247 39.916 216.526 39.4436 218.125 39.4436C219.84 39.4436 221.163 39.9669 222.093 41.0135C223.038 42.0601 223.51 43.4556 223.51 45.2V45.6579C223.51 45.8033 223.46 45.9268 223.358 46.0286C223.256 46.1303 223.125 46.1812 222.965 46.1812H215.726V46.3556C215.755 47.1551 215.973 47.8311 216.38 48.3835C216.802 48.9213 217.376 49.1902 218.103 49.1902C218.961 49.1902 219.651 48.8559 220.174 48.1872C220.305 48.0273 220.407 47.9256 220.48 47.882C220.567 47.8383 220.69 47.8165 220.85 47.8165H222.725C222.856 47.8165 222.965 47.8601 223.053 47.9474C223.154 48.02 223.205 48.1145 223.205 48.2308C223.205 48.5797 222.994 48.994 222.573 49.4737C222.166 49.9388 221.577 50.3459 220.807 50.6947C220.036 51.0436 219.142 51.218 218.125 51.218ZM220.545 44.3496V44.2842C220.545 43.4266 220.327 42.7361 219.891 42.2128C219.469 41.6895 218.881 41.4278 218.125 41.4278C217.369 41.4278 216.78 41.6895 216.359 42.2128C215.937 42.7361 215.726 43.4266 215.726 44.2842V44.3496H220.545ZM226.348 51C226.203 51 226.079 50.9491 225.978 50.8474C225.876 50.7456 225.825 50.6221 225.825 50.4767V40.2068C225.825 40.0614 225.876 39.9378 225.978 39.8361C226.079 39.7198 226.203 39.6616 226.348 39.6616H228.114C228.274 39.6616 228.405 39.7125 228.507 39.8143C228.609 39.916 228.66 40.0469 228.66 40.2068V41.1007C229.008 40.6356 229.445 40.2794 229.968 40.0323C230.506 39.7852 231.116 39.6616 231.799 39.6616H232.693C232.853 39.6616 232.977 39.7125 233.064 39.8143C233.166 39.9015 233.217 40.0251 233.217 40.185V41.7549C233.217 41.9002 233.166 42.0238 233.064 42.1256C232.977 42.2273 232.853 42.2782 232.693 42.2782H230.993C230.309 42.2782 229.772 42.4744 229.379 42.8669C228.987 43.2594 228.79 43.7972 228.79 44.4804V50.4767C228.79 50.6221 228.74 50.7456 228.638 50.8474C228.536 50.9491 228.405 51 228.245 51H226.348Z" fill="white"/>
</svg>
